<?xml version="1.0" encoding="utf-8"?>
<!DOCTYPE svg PUBLIC "-//W3C//DTD SVG 1.0//EN" "http://www.w3.org/TR/2001/REC-SVG-20010904/DTD/svg10.dtd">
<svg version="1.0" xmlns="http://www.w3.org/2000/svg" width="470px" height="152px" viewBox="0 0 470 152" preserveAspectRatio="xMidYMid meet">
 <g fill="#ffffff">
  <path d="M0 76 l0 -76 235 0 235 0 0 76 0 76 -235 0 -235 0 0 -76z m224.55 69.15 c1.95 -0.85 2.45 -1.40 3.40 -3.70 0.80 -1.75 1.25 -4.10 1.45 -6.80 0.10 -2.30 0.50 -4.35 0.80 -4.60 0.30 -0.25 2.80 -0.85 5.55 -1.30 2.75 -0.45 6.90 -1.50 9.25 -2.35 2.35 -0.85 5.55 -1.60 7.15 -1.75 2.90 -0.25 2.95 -0.20 4.75 1.75 1.20 1.25 2.60 2.20 3.90 2.55 3.40 0.90 12 0.75 17.75 -0.40 2.85 -0.55 8.35 -1.60 12.20 -2.30 8.60 -1.60 11.45 -2.40 15.55 -4.30 4.65 -2.10 6.95 -2 9.75 0.45 6.90 6.05 14.90 7.85 32.25 7.30 5.50 -0.20 10.60 -0.20 11.25 -0.05 0.65 0.15 2.05 1.10 3.10 2.05 1.05 0.95 2.65 1.95 3.50 2.25 2 0.60 31.60 1 35 0.50 1.35 -0.25 3.55 -1 4.90 -1.70 3.20 -1.65 5.15 -1.60 9.25 0.35 l3.45 1.65 17 0.10 c9.35 0.05 17.40 -0.05 17.90 -0.15 0.55 -0.20 0.85 -0.75 0.85 -1.65 0 -0.80 0.35 -1.75 0.80 -2.10 0.45 -0.35 1.70 -2 2.75 -3.65 1.95 -3 1.95 -3.05 1.95 -8 0 -5.90 0.15 -5.55 -6.75 -14.55 -11.15 -14.60 -10.75 -14 -10.75 -16.20 0 -2.15 1.20 -3.95 9.50 -14.30 6.25 -7.80 9.05 -11.75 8.25 -11.75 -1.40 0 -0.80 -2.95 1.50 -7.45 2.05 -3.95 2.25 -4.70 2.25 -7.90 0 -2.10 -0.30 -4.30 -0.80 -5.40 l-0.80 -1.90 -17.55 0.35 c-9.70 0.20 -19 0.50 -20.75 0.70 -3 0.35 -3.25 0.50 -6.50 3.75 -3.05 3 -3.55 3.35 -5.35 3.35 -1.85 0 -2.15 -0.25 -4.25 -3.05 -4 -5.40 -1.80 -4.95 -24.40 -4.95 l-19.80 0 -1.40 1.35 c-0.75 0.75 -1.40 1.80 -1.40 2.40 0 2.20 -1.25 2.60 -9 2.90 -4 0.15 -8.85 0.65 -10.80 1.10 -2 0.45 -5.05 0.75 -7 0.65 l-3.40 -0.15 -0.40 -2.25 c-1 -5.70 -1.60 -8.10 -3.20 -13 -3.80 -11.40 -7.60 -16.45 -15.10 -20.10 l-4.35 -2.15 -16 0.05 c-17.80 0.10 -22.35 0.60 -34 3.80 -4.40 1.20 -7.35 1.65 -11.05 1.80 l-5.05 0.15 -1.60 -2.45 c-2.75 -4.30 -2.60 -4.25 -10.15 -4 l-6.65 0.20 -5.50 3.15 c-15.10 8.65 -16 9.05 -19.55 9.05 l-3.30 0 -7.80 -6.55 c-4.35 -3.60 -8.40 -6.95 -9.10 -7.40 -1.20 -0.80 -6.10 -1.25 -21.85 -1.85 l-6.60 -0.25 -12.65 5.30 c-15.75 6.60 -15.40 6.35 -17 14.25 -0.65 3.15 -1.30 5.80 -1.50 5.90 -0.25 0.10 -0.40 2.10 -0.40 4.40 0 6.50 0.45 6.20 -9.25 6.20 -4.50 0 -8.50 -0.15 -8.95 -0.30 -0.65 -0.25 -0.80 -1.10 -0.80 -4.20 0 -6.95 -2 -13.55 -4.25 -13.90 -0.60 -0.10 -1.40 -0.95 -2 -2.25 -1.50 -3.15 -6.15 -7.50 -9.90 -9.30 l-3.25 -1.55 -16.40 0 c-12.20 0 -17.55 0.20 -20.60 0.75 -9.65 1.70 -32.30 8.35 -34.40 10.15 -1.30 1.10 -1.85 6.40 -1.15 11.10 0.95 6.35 1.10 8.50 0.60 8.50 -0.45 0 1.15 4.85 5.05 15.25 2.55 6.80 4.05 8.65 8.35 10.25 1.60 0.55 2.95 1.25 2.95 1.50 0 0.25 0.30 0.75 0.60 1.10 0.35 0.35 2.20 5.25 4.10 10.90 1.90 5.65 3.65 10.45 3.85 10.70 0.25 0.30 0.45 0.95 0.45 1.55 0 0.55 0.45 1.90 1 3 0.55 1.10 1 2.20 1 2.50 0 0.25 0.30 1.10 0.70 1.85 0.40 0.75 0.85 2.10 1.05 3 0.20 0.90 0.50 1.90 0.70 2.15 0.20 0.30 0.80 1.90 1.30 3.65 0.50 1.75 1.10 3.25 1.35 3.40 0.20 0.15 0.40 0.75 0.40 1.35 0 2.05 3.60 12.40 4.80 13.85 0.70 0.75 2.25 1.75 3.55 2.20 3.80 1.30 13.55 0.85 14.05 -0.65 0.10 -0.30 0.65 -0.55 1.20 -0.55 1 0 6.05 -3.40 7.25 -4.85 0.35 -0.45 1.85 -0.85 3.60 -1 2.85 -0.25 3.20 -0.20 6.40 1.75 1.85 1.10 5.20 2.65 7.40 3.40 3.65 1.25 4.85 1.40 13 1.55 9.60 0.25 13.75 -0.35 20.35 -2.85 1.45 -0.55 3.70 -1 4.95 -1 2.20 0 2.35 0.10 2.65 1.55 0.15 0.85 0.30 3.30 0.30 5.35 0 4.60 1.30 7.70 3.70 8.95 2.35 1.25 16.60 1.90 27.45 1.30 12 -0.65 12.95 -1.30 14.05 -9.40 l0.55 -4 2.30 -0.15 c2 -0.15 3 0.25 8 2.95 6.15 3.35 12.60 6.90 19.65 10.70 2.40 1.30 5.35 2.70 6.50 3.05 2.95 1 9.45 0.65 12.35 -0.65z"/>
 </g>
 <g fill="#ebebec">
  <path d="M210.70 147.30 c-1.15 -0.35 -4.10 -1.75 -6.50 -3.05 -7.05 -3.80 -13.50 -7.35 -19.65 -10.70 -3.15 -1.70 -6.05 -3.05 -6.50 -2.95 -0.60 0.10 -0.95 1.20 -1.35 4.15 -0.65 4.95 -1.40 6.45 -3.65 7.85 -1.55 1 -2.85 1.15 -11.15 1.60 -11.85 0.60 -27.35 -0.10 -29.70 -1.35 -2.35 -1.20 -3.75 -4.45 -3.75 -8.70 0 -5.20 -0.40 -7.15 -1.35 -7.15 -0.50 0 -2.05 0.45 -3.50 1 -6.80 2.60 -10.65 3.10 -21.85 2.90 -9.85 -0.20 -10.75 -0.30 -14.50 -1.60 -2.20 -0.75 -5.50 -2.25 -7.35 -3.40 -2.55 -1.50 -3.70 -1.95 -4.65 -1.70 -0.70 0.20 -1.40 0.30 -1.55 0.30 -0.15 -0.05 -0.55 0.25 -0.85 0.65 -1.20 1.50 -7.05 5.40 -7.70 5.15 -0.40 -0.15 -0.60 -0.10 -0.40 0.15 0.45 0.80 -4.55 1.55 -9.95 1.55 -5.95 0 -9.20 -0.90 -11 -3 -1 -1.20 -4.75 -11.60 -5.05 -14 -0.05 -0.40 -0.35 -1.35 -0.65 -2.05 -0.25 -0.70 -0.80 -2.25 -1.15 -3.50 -0.35 -1.20 -0.80 -2.40 -0.95 -2.70 -0.20 -0.25 -0.55 -1.15 -0.75 -2 -0.50 -1.90 -0.45 -1.70 -1.20 -3.50 -0.35 -0.80 -0.70 -1.70 -0.80 -2 -0.05 -0.25 -0.45 -1.35 -0.95 -2.35 -0.45 -1.05 -0.90 -2.25 -1 -2.75 -0.05 -0.50 -0.30 -1.25 -0.45 -1.65 -0.30 -0.70 -6.75 -19.45 -6.90 -20 -0.05 -0.15 -0.05 -0.40 0 -0.65 0 -0.20 -0.15 -0.35 -0.40 -0.35 -0.25 0 -0.60 -0.45 -0.80 -1 -0.20 -0.60 -1.35 -1.35 -3.25 -2.05 -4.40 -1.60 -5.65 -3.20 -8.80 -11.45 -4.75 -12.50 -6.05 -17 -4.90 -17 0.40 0 0.70 -0.35 0.70 -0.75 0 -1.20 1.90 -0.90 2.25 0.40 0.85 2.85 5.85 16.05 6.50 17.25 0.45 0.75 1.30 2.25 1.90 3.35 1.05 1.90 1.85 2.45 6.85 4.75 0.40 0.20 0.90 1.25 1.10 2.30 0.15 1.05 0.80 3.20 1.40 4.70 0.60 1.50 1.50 4 2 5.50 0.50 1.50 2.30 6.70 4 11.50 1.70 4.80 5.15 14.75 7.70 22.05 2.50 7.30 5 13.90 5.45 14.65 2.05 3.10 6.80 4.35 13.10 3.45 3.10 -0.45 3.95 -0.85 7.45 -3.35 2.15 -1.55 4.20 -2.80 4.55 -2.80 0.35 0 0.90 -0.35 1.25 -0.75 0.45 -0.55 1.75 -0.75 5.10 -0.75 4.15 0 4.80 0.15 8.10 1.75 5.95 2.90 8.15 3.25 21.05 3.25 10.25 0 11.85 -0.10 14.40 -1 1.85 -0.65 4.10 -1 6.50 -1 l3.70 0 0.30 4.15 c0.35 4.90 2.25 9.15 4.65 10.30 1.15 0.60 4.85 0.75 18.65 0.75 l17.20 0.05 1 -1.35 c0.80 -1.05 1.10 -2.45 1.30 -5.50 0.20 -2.30 0.50 -4.45 0.70 -4.75 0.30 -0.45 1.80 -0.65 4.65 -0.65 l4.25 0 6.60 3.65 c22.30 12.40 22.20 12.35 30.15 12.35 3.70 0 4.70 -0.15 5.35 -0.90 1.45 -1.55 1.95 -3.80 1.95 -8.20 0 -5.40 0.25 -5.65 6.20 -6.70 5.90 -1 11.40 -2.55 14.30 -4 1.85 -0.95 3.15 -1.20 5.90 -1.20 3.40 0 3.55 0.05 5.20 1.85 l1.70 1.90 8.40 0.45 c9 0.50 10.65 0.35 24.70 -2.45 5.75 -1.15 12 -3.25 13.55 -4.55 0.50 -0.50 2.15 -0.70 4.95 -0.70 4.05 0 4.15 0.05 6.15 1.80 1.10 1 3.20 2.40 4.70 3.05 5.65 2.60 6.95 2.75 23.20 3 l15.35 0.25 1.65 1.60 c3.25 3.15 2.60 3.05 22.45 3.20 17.80 0.15 18.25 0.15 20.10 -0.90 1.65 -0.90 2.50 -1.05 6.05 -0.85 2.25 0.10 5 0.55 6.10 1 1.70 0.70 4.55 0.80 19.50 0.80 l17.50 0 1.95 -2.45 c1.65 -2.10 3.30 -3.20 3.30 -2.25 0 0.40 -2.05 3.30 -3.45 4.90 -0.70 0.75 -1.05 1.35 -0.75 1.35 0.25 -0.05 1.35 -1.15 2.40 -2.50 2.35 -3 3.35 -3.25 2.80 -0.75 -0.55 2.45 -1.70 4.05 -3.65 5.10 -1.45 0.80 -3.40 0.90 -21.10 0.90 l-19.50 0 -3.55 -1.65 -3.55 -1.70 -2.50 1.30 c-3.90 2.05 -7 2.30 -25.10 2 -17.85 -0.25 -18.80 -0.40 -21.30 -2.90 -2.25 -2.25 -2.65 -2.35 -13.35 -2 -18 0.55 -26.40 -1.30 -33.35 -7.40 -1.20 -1.05 -2.50 -1.90 -2.85 -1.90 -0.35 0 -2.10 0.65 -3.90 1.45 -4.10 1.90 -6.95 2.70 -15.55 4.30 -3.85 0.70 -9.35 1.80 -12.25 2.35 -3.95 0.80 -6.90 1.05 -11.90 1 -8.30 -0.10 -10.30 -0.60 -12.70 -3.20 -2.15 -2.35 -2.15 -2.35 -8.90 0.05 -2.35 0.80 -6.50 1.85 -9.25 2.30 -2.75 0.45 -5.25 1.05 -5.55 1.30 -0.30 0.25 -0.70 2.30 -0.80 4.60 -0.20 2.70 -0.65 5.05 -1.45 6.80 -0.95 2.30 -1.50 2.85 -3.40 3.70 -2.90 1.35 -12.15 1.70 -15.35 0.65z"/>
  <path d="M441.50 89.55 c-0.25 -0.55 -0.50 -2 -0.50 -3.25 0 -2.10 0.35 -2.75 4.50 -8.15 2.50 -3.25 6.75 -8.80 9.45 -12.40 6.45 -8.45 7.40 -9.55 7.80 -9.15 0.15 0.15 -0.15 1.30 -0.75 2.50 l-1.05 2.15 1.40 -1.65 c1.75 -2.05 2.75 -2.15 2.20 -0.20 -0.90 3.10 -3.55 7 -11.05 16.35 -5.75 7.15 -9.50 12.25 -9.50 12.90 0 0.35 0.25 0.90 0.60 1.25 0.45 0.45 0.25 0.60 -1 0.60 -1.05 0 -1.75 -0.30 -2.10 -0.95z"/>
  <path d="M181.90 70.85 c-1.15 -0.95 -1.40 -1.55 -1.40 -3.30 0 -1.85 0.50 -2.90 3.35 -7.15 1.90 -2.75 4.45 -6 5.75 -7.20 2.30 -2.15 2.45 -2.20 5.65 -2.20 l3.25 0 0 1.65 c0 1.30 -0.50 2.15 -2.55 4.10 -2.95 2.90 -5.20 6.55 -7.20 11.65 l-1.40 3.60 -2.05 0 c-1.35 -0.05 -2.50 -0.40 -3.40 -1.15z"/>
  <path d="M97.85 42.15 c-0.20 -0.15 -0.35 -3.10 -0.35 -6.50 l0 -6.15 -1.20 0 c-1.45 0 -1.70 -0.60 -2.10 -5.05 -0.25 -2.45 -0.20 -3.45 0.25 -3.45 0.30 0 0.55 0.35 0.55 0.80 0 0.55 0.30 0.65 0.95 0.45 0.80 -0.25 1.20 0.20 2.25 2.35 1.60 3.30 2.30 6.90 2.30 11.95 0 3.80 0.05 3.95 1.25 4.25 2.25 0.55 1.50 1.70 -1.15 1.70 -1.35 0 -2.60 -0.15 -2.75 -0.35z"/>
 </g>
 <g fill="#c5c5c5">
  <path d="M223 145.75 c0.50 -0.65 0.40 -0.75 -0.80 -0.75 l-1.40 0 2.30 -2.35 c2.90 -3 3.40 -4.25 3.40 -8.95 l0 -3.70 2.05 0 c1.70 0 1.95 0.10 1.50 0.70 -0.30 0.35 -0.65 2.70 -0.75 5.15 -0.30 6.45 -1.65 9.10 -5.25 10.15 -1.40 0.40 -1.55 0.35 -1.05 -0.25z"/>
  <path d="M169.20 142.10 c0.25 -0.40 0 -0.60 -0.65 -0.60 -1.45 0 -1.30 -0.55 0.50 -2.30 2.25 -2.10 3 -3.85 3.30 -7.75 l0.30 -3.45 2.40 0 c1.35 0 2.45 0.10 2.45 0.25 0 0.15 -0.45 0.70 -1 1.25 -0.80 0.80 -1 1.65 -1 4.25 0 3.55 -0.80 6 -2.35 7.35 -1.15 1.05 -4.50 1.85 -3.95 1z"/>
  <path d="M49.15 130.50 c-2.10 -0.50 -3.95 -1.70 -5 -3.35 -0.45 -0.70 -2.95 -7.30 -5.45 -14.60 -2.55 -7.30 -6 -17.25 -7.70 -22.05 -1.65 -4.80 -3.40 -9.75 -3.80 -11 -2.15 -6.35 -3.50 -9.40 -4.90 -10.95 l-1.55 -1.70 1.45 0.35 c1.30 0.30 1.40 0.25 0.85 -0.40 -0.35 -0.40 -1.10 -0.85 -1.70 -1 -0.60 -0.15 0 -0.15 1.30 -0.10 1.35 0.10 2.65 0.40 2.90 0.65 0.40 0.40 2.50 6.20 7.45 20.40 1.15 3.30 2.70 7.80 3.50 10 0.80 2.20 3 8.55 4.90 14.05 3.70 10.60 5.65 14.30 8.40 15.70 1.05 0.55 3.55 0.80 9.10 0.90 4.15 0.10 7.60 0.30 7.60 0.50 -0.05 0.80 -2.65 2.15 -5.05 2.60 -3 0.55 -9.95 0.60 -12.30 0z"/>
  <path d="M463 47.25 c0 -6.15 0.15 -7.75 0.65 -7.75 1.25 0 1.85 2.50 1.85 7.80 0 4 -0.20 5.55 -0.80 6.45 -0.45 0.70 -1 1.25 -1.25 1.25 -0.25 0 -0.45 -3.50 -0.45 -7.75z"/>
  <path d="M95.85 39.15 c-0.20 -2.15 -0.45 -5.85 -0.65 -8.20 -0.20 -2.85 -0.15 -4.40 0.20 -4.65 0.30 -0.15 0.70 0.15 0.85 0.70 0.25 0.80 0.50 0.90 1 0.50 1.25 -1.05 1.70 0.75 1.85 7.05 l0.15 6.20 8.10 0.15 c9.50 0.15 8.90 0.55 9.10 -5.90 0.10 -2.35 0.35 -4.30 0.60 -4.40 0.25 -0.10 0.45 -0.50 0.45 -0.90 0 -0.40 0.35 -0.70 0.75 -0.70 0.65 0 0.75 1.05 0.75 6.40 0 4.30 -0.20 6.60 -0.60 7 -0.45 0.45 -3.65 0.60 -11.45 0.60 l-10.80 0 -0.30 -3.85z"/>
  <path d="M5.30 32.90 c-0.35 -1.50 -0.35 -5.80 0 -7.30 0.20 -0.60 0.65 -1.10 1 -1.10 0.55 0 0.70 1.05 0.70 4.75 0 3.70 -0.15 4.75 -0.70 4.75 -0.35 0 -0.80 -0.50 -1 -1.10z"/>
 </g>
 <g fill="#ffe032">
  <path d="M214.25 131.70 c-1.40 -0.75 -12.30 -6.70 -24.25 -13.20 -11.95 -6.50 -22.50 -12.25 -23.45 -12.70 l-1.70 -0.90 0.35 8.40 c0.15 4.65 0.45 10.20 0.60 12.35 l0.35 3.85 -14.30 0 -14.25 0 -0.30 -3.10 c-0.15 -1.75 -0.50 -8.10 -0.80 -14.15 -0.30 -6.05 -0.65 -12.50 -0.80 -14.35 l-0.30 -3.35 -2.40 3.60 c-4.35 6.45 -9.75 11.30 -16.20 14.40 -5.65 2.75 -10.20 3.65 -17 3.30 -10.65 -0.50 -17.05 -4.40 -21.35 -13.10 -2.75 -5.65 -3.55 -9.05 -3.80 -16.50 -0.30 -7.85 0.50 -12.30 3.10 -17.60 3.90 -7.90 13.60 -15.75 22.95 -18.60 4.90 -1.50 14.75 -1.50 19.60 0 4.60 1.45 8.80 3.60 11.30 5.85 l2 1.85 -0.30 -8.25 c-0.20 -4.55 -0.45 -9.05 -0.60 -10.05 -0.25 -1.80 -0.25 -1.85 -2.10 -1.40 -1 0.25 -2.70 0.45 -3.70 0.45 -1.90 0 -1.90 0 -1.90 -2.10 0 -2.85 2 -13 2.70 -13.75 0.30 -0.30 3.60 -1.85 7.30 -3.40 3.70 -1.55 9.35 -3.95 12.60 -5.30 3.75 -1.60 6.55 -2.45 7.85 -2.45 l2.05 0 0 6.90 0.05 6.85 5.60 -5.90 c7.55 -7.90 6.50 -8 17.85 1.45 8.30 6.95 8.75 7.40 8.90 9.25 0.15 1.75 -0.55 2.90 -8.70 14.80 -4.90 7.10 -10.45 15.10 -12.35 17.80 -1.90 2.70 -3.35 5 -3.25 5.10 0.05 0.10 2.45 1.90 5.20 4.10 2.80 2.15 7.85 6.05 11.25 8.65 3.35 2.60 6.85 5.25 7.70 5.80 l1.55 1.10 0.65 -4.10 c0.80 -5.15 3.10 -12.15 5.35 -16.15 1.85 -3.35 5.60 -7 9.90 -9.55 13.50 -8.20 33.30 -8.20 45.45 0 2.50 1.70 2.85 2.15 2.85 3.60 0 1.85 0.75 0.90 -19.40 24.65 -3.10 3.65 -5.60 6.75 -5.60 6.95 0 0.55 3.75 -2 5.90 -4 1.20 -1.15 2.95 -3.25 3.95 -4.65 1.65 -2.35 2 -2.65 3.60 -2.65 1.70 0 2.10 0.40 7.95 7.55 5.70 7.05 6.10 7.65 6.10 9.70 0 7.85 -16.55 16.45 -33.75 17.55 l-5 0.35 0.30 5.05 c0.20 2.75 0.35 6.45 0.40 8.20 l0.05 3.10 -1.65 0 c-0.85 0 -2.75 -0.60 -4.10 -1.30z m10.75 -60.70 c-0.75 -0.45 -4.60 0.30 -6.50 1.25 -4 2.05 -7.05 10 -5.15 13.40 0.10 0.20 2.90 -2.95 6.20 -7 3.70 -4.50 5.75 -7.45 5.45 -7.65z m-109.10 10.65 c2.50 -2 4.50 -4.90 5.35 -7.80 l0.70 -2.40 -1.60 1.35 c-3.05 2.55 -6.40 3.30 -9.75 2.15 -2.05 -0.70 -2.80 -3 -2.50 -7.50 l0.25 -3.40 -1.80 1.30 c-3.65 2.60 -6.70 7.75 -6.15 10.40 0.35 1.90 3.40 5.10 6.25 6.50 3.50 1.70 6.60 1.50 9.25 -0.60z"/>
  <path d="M370.50 119.85 c0 -1.30 0.90 -2.85 4.50 -7.55 2.50 -3.25 4.25 -5.70 3.90 -5.50 -0.35 0.25 -1.65 1.05 -2.80 1.85 -3.15 2.15 -9.20 4.55 -15.15 6.10 -6.80 1.75 -17.90 2.25 -24.65 1.10 -10.70 -1.90 -16.65 -7.85 -18.45 -18.55 l-0.65 -3.90 -1.40 2.15 c-5.10 7.75 -13.35 13.90 -21.30 15.85 -5.35 1.30 -25.20 4.60 -27.70 4.60 l-2.70 0 -0.30 -3.10 c-0.20 -1.75 -0.55 -5.15 -0.85 -7.65 -2.65 -24.50 -3.55 -32.85 -4.45 -41 -0.55 -5.20 -1.15 -10.35 -1.30 -11.40 l-0.30 -1.95 -1.10 1.05 c-0.70 0.70 -1.80 1.05 -3 1.05 -2.25 0 -2.65 -0.80 -4.30 -8.50 -0.60 -2.90 -1.75 -7.95 -2.55 -11.30 -1.65 -6.80 -1.75 -7.85 -0.80 -8.60 0.35 -0.30 3.25 -1.35 6.40 -2.25 18.35 -5.50 28.65 -7.20 40.80 -6.70 16.95 0.65 23.80 5.90 29.15 22.35 2.10 6.45 3.05 11.85 3.35 19.35 l0.30 6.60 2.65 -2.35 c4.55 -4.05 10.15 -7 17 -8.90 6.20 -1.70 19.10 -1.40 24.75 0.60 1.10 0.35 1.95 0.60 1.95 0.50 0 -0.05 -0.90 -1.35 -2 -2.85 -1.65 -2.15 -2 -3.05 -1.90 -4.45 l0.15 -1.75 4 0 c2.20 0 9.25 0.20 15.60 0.45 l11.65 0.45 5.85 7.70 c3.25 4.25 6.25 8.20 6.70 8.75 0.75 0.95 1.05 0.65 6.90 -7.20 3.40 -4.45 6.45 -8.40 6.85 -8.70 0.40 -0.30 4.45 -0.70 9.80 -0.85 5.05 -0.20 12.15 -0.50 15.80 -0.70 l6.60 -0.30 0 1.80 c0 1.10 -0.40 2.30 -0.95 2.95 -1.15 1.40 -5.45 6.90 -12.55 16.15 -2.90 3.80 -7.45 9.70 -10.10 13.15 -2.70 3.45 -4.90 6.45 -4.90 6.65 0 0.35 1.50 2.35 11.95 16.05 2.60 3.40 6.40 8.35 8.40 11 2 2.65 3.90 5 4.15 5.15 0.30 0.15 0.50 1.20 0.50 2.30 l0 1.95 -15.15 0 -15.20 0 -5.60 -7.25 c-3.10 -4 -5.70 -7.25 -5.80 -7.25 -0.10 0 -2.70 3.25 -5.80 7.25 l-5.60 7.25 -15.20 0 -15.15 0 0 -1.65z m25 -34.80 c0 -0.25 -1.40 -2.25 -3.10 -4.45 -1.75 -2.20 -5.15 -6.60 -7.60 -9.80 -2.45 -3.20 -4.60 -5.80 -4.75 -5.80 -0.20 0 -2.35 2.40 -4.80 5.30 -2.50 2.95 -7.75 9.15 -11.65 13.80 -3.95 4.65 -7.10 8.55 -7 8.65 0.10 0.15 1.30 -0.55 2.70 -1.45 2.70 -1.85 6 -5.20 7.45 -7.70 0.85 -1.45 1.20 -1.60 3.25 -1.55 l2.25 0 5.90 7.20 c5.35 6.65 5.85 7.40 5.85 9.30 l0 2.05 5.75 -7.55 c3.15 -4.15 5.75 -7.75 5.75 -8z m-107.10 -0.65 c6.30 -3.60 9.30 -8.35 10.40 -16.55 0.85 -6.50 0.85 -10.45 0 -16.25 -1.25 -8.40 -3.65 -11.10 -10.05 -11.50 -2.35 -0.10 -3.35 0.05 -4.60 0.85 -1.50 0.95 -1.55 1.10 -1.35 3.65 0.25 3 2.20 38.40 2.20 40.20 0 0.65 0.10 1.20 0.25 1.20 0.15 0 1.55 -0.75 3.15 -1.60z m58.10 -6.95 c4.15 -5.10 4.85 -6.25 4.20 -6.60 -1.40 -0.80 -6.25 1.05 -8.30 3.20 -2.30 2.40 -4.10 7 -3.65 9.45 0.50 2.55 0.80 2.80 1.80 1.40 0.50 -0.70 3.20 -4.05 5.95 -7.45z"/>
  <path d="M50.50 115.20 c-0.55 -1.25 -1 -2.40 -1 -2.50 0 -0.20 -6.70 -19.40 -14.35 -41.20 -1.80 -5.10 -4.15 -11.90 -5.25 -15.10 -1.10 -3.25 -2.15 -5.90 -2.35 -5.90 -0.20 0 -0.90 0.55 -1.55 1.25 -0.80 0.85 -1.70 1.25 -2.85 1.25 -2 0 -1.55 0.90 -6.75 -13.15 -3.75 -10.20 -4.45 -12.95 -3.30 -13.65 1.95 -1.25 22 -7.15 30.60 -9 7.25 -1.60 22.10 -2.25 27.45 -1.20 7.10 1.35 13.40 5.85 16.25 11.60 2.15 4.40 1.20 11.15 -2.45 17.15 -3.20 5.30 -10.15 13.50 -17.80 21.05 l-7.65 7.60 4.25 14.90 c2.55 8.95 4.25 15.85 4.25 17.25 l0 2.30 -6.70 4.80 c-8.10 5.85 -9.30 6.15 -10.80 2.55z m12.10 -71.70 l1.45 -2.25 -1.15 -0.30 c-1.85 -0.50 -7.60 0.40 -10.05 1.55 l-2.20 1.05 1.55 5.40 1.50 5.40 3.75 -4.30 c2.05 -2.35 4.35 -5.30 5.15 -6.55z"/>
  <path d="M203.35 38.75 c-2.95 -4.50 -3.70 -7.45 -2.20 -8.60 0.60 -0.50 10.85 -6.25 17.60 -9.90 1.95 -1.05 4.75 -2.65 6.30 -3.55 1.90 -1.15 3.45 -1.70 4.75 -1.70 1.85 0 2.05 0.20 3.95 3.15 1.10 1.70 3.75 5.80 5.90 9.05 3.30 5.05 3.90 6.20 3.75 7.75 l-0.15 1.80 -6 1.15 c-3.30 0.65 -10.05 1.95 -15 2.90 -4.95 1 -10.60 1.90 -12.55 2.05 l-3.50 0.30 -2.85 -4.40z"/>
 </g>
 <g fill="#396bb9">
  <path d="M207.25 139.45 c-3.75 -2 -26 -14.10 -29.85 -16.25 l-3.90 -2.15 0 7.25 c0 4.05 -0.25 7.70 -0.50 8.25 -0.50 0.90 -1.25 0.95 -19.90 0.95 -10.65 0 -19.85 -0.15 -20.45 -0.30 -2.20 -0.60 -2.75 -2.40 -3.30 -10.55 -0.30 -4.20 -0.75 -7.65 -0.95 -7.65 -0.25 0 -1.70 0.65 -3.30 1.45 -6.35 3.20 -8.30 3.55 -19.55 3.55 -16.20 0 -21.65 -1 -26.90 -4.80 -3.10 -2.20 -3.65 -2.45 -4.40 -1.90 -0.35 0.25 -1.50 1.05 -2.55 1.80 -1.05 0.75 -3.40 2.40 -5.20 3.65 l-3.25 2.25 -9 0 c-9 -0.05 -9 -0.05 -9.90 -1.25 -0.50 -0.70 -2.50 -5.80 -4.40 -11.40 -1.95 -5.55 -4.15 -11.90 -4.95 -14.10 -0.80 -2.20 -2.35 -6.70 -3.50 -10 -5.70 -16.45 -6.65 -19.10 -7.35 -20.15 -0.35 -0.60 -1.20 -2.50 -1.80 -4.25 l-1.10 -3.10 -3.15 -0.15 c-3.75 -0.20 -3.90 -0.35 -6.75 -8 -6.15 -16.65 -5.85 -15.40 -5.85 -23.80 l0 -7.55 1.65 -1.10 c2.95 -1.95 24.45 -8.25 33.95 -9.90 3.10 -0.55 8.60 -0.75 22.10 -0.75 l17.90 0 3.25 1.55 c3.85 1.85 8.35 6.15 10.15 9.70 1.15 2.35 1.25 3.05 1.40 11.60 l0.15 9.15 10.15 0 c7.20 0 10.25 -0.15 10.70 -0.60 0.40 -0.40 0.60 -2.55 0.60 -6.50 0 -8.20 1.50 -15.20 3.70 -17.30 1.05 -1.05 5.65 -3.25 14.20 -6.85 l12.65 -5.30 8.10 0.25 c15.75 0.50 22.05 1 23.35 1.85 0.70 0.45 4.75 3.80 9.10 7.40 6.80 5.70 8.05 6.55 9.60 6.55 1.80 0 5.45 -1.85 18.05 -9.05 l5.50 -3.15 8.15 -0.20 c9.25 -0.20 8.90 -0.35 11.65 4 l1.60 2.45 3.55 -0.15 c1.95 -0.10 6.25 -0.95 9.55 -1.85 12 -3.20 16.10 -3.65 35.50 -3.75 l17.50 -0.05 4.35 2.15 c7.50 3.65 11.30 8.70 15.10 20.10 1.60 4.90 2.20 7.30 3.20 13 0.35 2.15 0.45 2.25 2.25 2.40 1.05 0.10 3.55 -0.20 5.50 -0.65 2 -0.45 6.85 -0.95 10.85 -1.10 7.75 -0.30 9 -0.70 9 -2.90 0 -0.60 0.65 -1.65 1.40 -2.40 l1.40 -1.35 21.30 0 c24.30 0 21.90 -0.45 25.90 4.95 1.25 1.65 2.45 3.05 2.75 3.05 0.25 0 2 -1.50 3.85 -3.35 3.25 -3.25 3.50 -3.40 6.50 -3.75 1.75 -0.20 11.70 -0.50 22.20 -0.70 14.55 -0.25 19.15 -0.20 19.40 0.25 0.25 0.35 0.35 3.90 0.35 7.90 -0.10 7.10 -0.15 7.40 -1.55 10.10 -0.85 1.55 -5.90 8.45 -11.25 15.40 -9.20 11.95 -9.70 12.65 -9.25 14.10 0.25 0.85 1.10 2.40 2 3.40 3.05 3.75 14.15 18.45 15.55 20.60 1.40 2.20 1.45 2.45 1.45 8.80 0 6.05 -0.10 6.75 -1.15 8.30 -1.05 1.55 -1.35 1.70 -3.50 1.70 -1.30 -0.05 -10.90 -0.10 -21.35 -0.15 l-19 -0.10 -1.20 -1.35 c-0.65 -0.80 -1.65 -1.95 -2.15 -2.60 l-0.95 -1.20 -1.90 2.60 -1.90 2.55 -22.55 -0.10 -22.60 -0.15 -0.15 -2.35 -0.15 -2.40 -16.15 0 c-14.35 0 -16.55 -0.10 -19.95 -0.95 -2.05 -0.55 -4.65 -1.45 -5.70 -1.95 -2.40 -1.25 -6.20 -4.60 -7.10 -6.25 l-0.70 -1.30 -2.25 1.95 c-1.25 1.10 -3.15 2.25 -4.30 2.55 -1.15 0.30 -2.50 0.80 -3.05 1.10 -1.10 0.65 -10.75 2.60 -17.90 3.65 -1.30 0.20 -2.50 0.55 -2.65 0.75 -0.15 0.25 -5.95 0.45 -12.90 0.45 -14.35 0 -13.80 0.15 -14.20 -3.95 l-0.20 -2.45 -2.10 1.40 c-1.20 0.80 -3 1.45 -4.40 1.60 -2 0.25 -5 1.30 -8 2.95 -0.50 0.25 -3.55 0.45 -6.80 0.45 -3.90 0 -6.10 0.20 -6.50 0.60 -0.40 0.40 -0.60 2.85 -0.60 7.65 0 4.80 -0.20 7.25 -0.60 7.65 -0.40 0.40 -3.15 0.60 -9.15 0.60 -7.70 0 -8.70 -0.10 -10.50 -1.05z m11.05 -12.80 c-0.20 -2.70 -0.45 -6.40 -0.60 -8.20 l-0.30 -3.30 5.20 -0.30 c10.95 -0.75 21.45 -4.15 28.15 -9.25 2.60 -1.95 5.75 -5.70 5.75 -6.85 0 -0.65 -11.70 -15.35 -12.50 -15.65 -0.20 -0.05 -1 0.80 -1.75 2 -2.10 3.15 -5.60 6.70 -7.95 8.05 -2.60 1.55 -6.95 2.95 -8.30 2.75 -1 -0.15 -0.85 -0.35 22.10 -27.50 6.70 -7.95 6.40 -7 3.05 -9.30 -7.80 -5.25 -18.50 -7.25 -28.60 -5.35 -9.90 1.90 -19.80 8 -23.50 14.45 -3.20 5.50 -6 15.30 -6.05 20.70 l0 2.65 -6.35 -4.90 c-3.55 -2.65 -7.55 -5.75 -8.95 -6.85 -1.40 -1.15 -5.30 -4.15 -8.65 -6.70 -3.30 -2.55 -6.05 -4.90 -6.05 -5.15 0 -0.25 3 -4.80 6.65 -10.10 14.50 -20.85 18.90 -27.45 18.75 -27.85 -0.20 -0.50 -17.50 -15 -17.95 -15 -0.15 0 -3.30 3.20 -7 7.15 -3.65 3.90 -6.85 7.20 -7.05 7.25 -0.20 0.10 -0.40 -3.55 -0.40 -8.10 0 -5.65 -0.15 -8.30 -0.55 -8.30 -0.30 0 -3.15 1.10 -6.35 2.45 -3.25 1.35 -8.90 3.75 -12.60 5.30 -3.70 1.55 -7 3.10 -7.30 3.40 -0.60 0.60 -3 12.20 -2.65 12.60 0.15 0.10 1.75 -0.05 3.60 -0.40 1.80 -0.30 3.50 -0.40 3.65 -0.20 0.20 0.20 0.65 6.25 1 13.50 0.35 7.20 0.75 13.85 0.90 14.75 0.15 0.85 0.15 1.60 0.10 1.60 -0.10 0 -0.75 -1.20 -1.50 -2.70 -1.95 -3.95 -4.80 -6.90 -8.65 -8.95 -10.10 -5.25 -20.45 -5.25 -30.15 0 -10.05 5.45 -16.85 13.80 -18.80 23.15 -0.95 4.50 -0.70 12.20 0.50 16.75 1.20 4.50 4.45 10.70 6.90 13.20 10.80 10.95 29.25 8.90 42.60 -4.75 3.05 -3.15 7.10 -9.15 7.85 -11.70 0.45 -1.40 0.90 -2 1.55 -2 0.75 0 0.90 0.40 0.90 2.15 0 1.55 1.85 35.90 2 36.75 0 0.05 5.70 0.10 12.70 0.10 l12.65 0 -0.20 -3.35 c-0.80 -14.45 -1.05 -21.95 -0.70 -22.30 0.20 -0.20 1.35 0.15 2.60 0.85 26.65 14.55 52.10 28.30 52.35 28.30 0.10 0 0.05 -2.20 -0.10 -4.85z m187 -14.40 c4.10 -5.35 6.25 -7.70 6.95 -7.70 0.70 -0.05 2.75 2.20 6.95 7.70 l5.95 7.75 13.65 0 c12.70 0 14.90 -0.20 13.15 -1.25 -0.30 -0.20 -1.70 -1.95 -3.20 -3.95 -1.45 -1.95 -5.15 -6.80 -8.20 -10.80 -11.50 -15 -14.05 -18.45 -14.05 -19 0 -0.30 2.40 -3.65 5.40 -7.45 2.95 -3.80 7.70 -10 10.60 -13.80 7.10 -9.25 11.40 -14.75 12.60 -16.15 0.55 -0.65 0.85 -1.30 0.75 -1.45 -0.15 -0.10 -4.65 0 -10 0.30 -5.40 0.30 -11.65 0.55 -13.95 0.55 -2.60 0 -4.50 0.25 -5 0.65 -0.45 0.30 -3.90 4.70 -7.65 9.75 -3.80 5.05 -7.05 9 -7.25 8.75 -0.25 -0.20 -1.30 -1.55 -2.35 -2.95 -1.05 -1.40 -4.25 -5.60 -7.10 -9.35 l-5.15 -6.85 -4.35 0 c-2.35 0 -8.55 -0.25 -13.75 -0.50 -5.25 -0.30 -9.70 -0.30 -9.90 -0.10 -0.40 0.40 3.05 5.25 8.55 12.10 1.50 1.85 1.60 2.10 0.55 1.40 -11.10 -7.60 -25.05 -8.95 -38.10 -3.70 -6.90 2.80 -13.25 7.90 -15.60 12.50 -0.80 1.55 -1.45 2.80 -1.50 2.80 0 0 -0.05 -4.20 -0.05 -9.35 0 -12.70 -1.70 -20.80 -6.55 -30.95 -6.90 -14.60 -24.30 -17.85 -53.95 -10.10 -6.55 1.70 -15.40 4.40 -16 4.90 -0.40 0.30 -0.15 2.15 0.85 6.35 0.75 3.25 1.95 8.50 2.65 11.70 0.70 3.20 1.65 6.25 2.05 6.75 0.65 0.90 0.85 0.80 3.20 -1.80 1.35 -1.50 2.55 -2.60 2.65 -2.50 0.10 0.15 0.55 3.85 1 8.25 0.80 7.50 4.20 38.95 5.30 49 0.30 2.50 0.65 5.90 0.85 7.65 0.25 2.85 0.40 3.10 1.50 3.10 1.35 0 22.65 -3.75 26.20 -4.60 8.60 -2.10 17.55 -9.20 22.85 -18.25 0.75 -1.35 1.60 -2.15 2.20 -2.15 0.80 0 0.95 0.40 0.95 2.65 0.05 8.80 4.80 17 11.80 20.20 13.35 6.10 39.90 0.85 49.20 -9.75 3.30 -3.70 3.35 -3.60 -3.35 -11.75 -3.25 -4 -6.25 -7.30 -6.65 -7.30 -0.45 -0.05 -1.20 0.70 -1.75 1.60 -2.55 4.35 -7.80 8.50 -12.60 10.10 -5.55 1.75 -5.40 1.40 4.65 -10.50 19.20 -22.80 18.80 -22.30 19.85 -22.15 0.65 0.10 2.85 2.45 5.55 6 2.50 3.20 6.30 8.05 8.45 10.80 2.10 2.75 3.85 5.30 3.85 5.65 0 0.40 -5.70 8.15 -12.70 17.25 -6.95 9.15 -12.85 16.85 -13 17.15 -0.25 0.40 3.50 0.55 13.35 0.55 l13.70 0 5.95 -7.75z m-343.90 -2.25 c2.80 -2 5.10 -4 5.10 -4.45 0 -0.45 -2.05 -8.05 -4.55 -16.90 l-4.60 -16.10 8 -7.90 c14.25 -14.10 21.65 -24.85 21.65 -31.55 0 -4.35 -5.05 -10.65 -10.70 -13.30 -5.10 -2.45 -8.50 -3 -17.45 -2.65 -10.15 0.35 -21.50 2.85 -39.35 8.70 -4.80 1.60 -5.65 2.05 -5.25 2.65 0.15 0.25 2.10 5.35 4.25 11.35 2.20 5.95 4.20 11.05 4.40 11.25 0.25 0.25 1.40 -0.60 2.55 -1.85 1.15 -1.25 2.35 -2.25 2.70 -2.25 0.35 0 1.65 3.05 2.90 6.90 1.30 3.75 3.80 11 5.60 16.10 7.95 22.65 14.35 41 14.35 41.20 0 0.10 0.45 1.25 1 2.55 l1 2.35 1.65 -1.20 c0.85 -0.65 3.90 -2.85 6.75 -4.90z m125.85 -43.10 c2.05 -5.20 3.90 -8.25 7.15 -11.50 1.55 -1.60 2.65 -2.90 2.40 -2.90 -0.25 0 0.15 -0.45 0.90 -1.05 1.10 -0.85 1.20 -1.15 0.65 -1.70 -0.40 -0.35 -1.40 -1.80 -2.30 -3.20 l-1.65 -2.55 -7.40 10.60 -7.35 10.65 1.15 1 c0.65 0.60 1.20 1.25 1.20 1.50 0 0.60 2.55 2.70 3.30 2.75 0.30 0 1.20 -1.65 1.95 -3.60z m24.25 -25.85 c11.05 -1.95 29.85 -5.70 30.15 -6.05 0.20 -0.20 -1.35 -3.05 -3.50 -6.30 -2.15 -3.25 -4.80 -7.35 -5.90 -9.05 -1.10 -1.75 -2.20 -3.15 -2.45 -3.15 -0.20 0 -1.70 0.75 -3.25 1.70 -1.55 0.90 -4.35 2.50 -6.30 3.55 -6.75 3.65 -17 9.40 -17.60 9.90 -0.35 0.25 -0.65 0.65 -0.65 0.85 0 0.20 1.25 2.30 2.80 4.70 2.95 4.55 2.90 4.50 6.70 3.85z"/>
  <path d="M212 88.15 c-1.60 -5.55 -0.90 -10.55 2 -14.60 1.75 -2.40 4.40 -3.75 8.35 -4.30 2.65 -0.35 6.15 0.40 6.15 1.25 0 0.65 -15.25 19.50 -15.75 19.50 -0.10 0 -0.45 -0.85 -0.75 -1.85z"/>
  <path d="M108.70 85.05 c-7.15 -1.75 -11.30 -7.20 -9.75 -12.90 1.15 -4.25 6.10 -9.20 10.85 -10.90 2.20 -0.80 6.25 -1 4.40 -0.25 -0.60 0.20 -1.75 1.25 -2.60 2.30 -1.85 2.20 -2.45 5.30 -1.60 7.90 1.30 4 6.70 3.15 10.40 -1.75 3.35 -4.35 4.55 -2.55 2.80 4.25 -1.50 5.80 -5.15 10.15 -9.45 11.25 -2.45 0.60 -2.80 0.60 -5.05 0.10z"/>
  <path d="M338.30 89.45 c-0.70 -2.30 -1.30 -5.65 -1.30 -7.40 0 -2.75 1.70 -7 3.65 -9.25 1.80 -2.05 5.90 -3.80 8.90 -3.80 2.55 0 5.05 0.95 4.75 1.80 -0.30 0.85 -13.95 17.80 -15 18.70 -0.65 0.50 -0.85 0.50 -1 -0.05z"/>
  <path d="M283.50 86.65 c0 -1.05 -0.55 -11.75 -1.25 -23.85 -0.70 -12.05 -1.10 -22.10 -0.95 -22.35 0.85 -1.40 3.45 -2.05 7.65 -1.85 5.65 0.20 7.85 1.25 9.50 4.50 2.35 4.80 3.15 16.25 1.85 26.25 -1.15 8.60 -4.10 13.05 -11.35 17.05 -4.80 2.65 -5.45 2.70 -5.45 0.25z"/>
  <path d="M52.75 57.45 c-0.90 -2.40 -4.20 -14.65 -4 -14.95 0.60 -1 5.25 -2.60 8.90 -3.05 4.60 -0.55 7.80 -0.20 8.20 0.95 0.50 1.30 -2.10 5.60 -6.65 10.85 -5.95 6.95 -6.10 7.10 -6.45 6.20z"/>
 </g>
 <g fill="#585755">
  <path d="M220.50 144.10 c0 -0.45 1.25 -2.10 2.75 -3.60 l2.75 -2.75 0 -3.35 0 -3.40 1.90 0.05 c1 0.05 1.45 0.15 1 0.30 -0.75 0.20 -0.90 0.80 -0.90 3.90 0 4.35 -0.50 5.95 -2.65 8.15 -1.80 1.85 -4.85 2.35 -4.85 0.70z"/>
  <path d="M94.50 36.80 c0 -6.35 0.05 -6.80 0.95 -6.80 1.20 0 1.50 1.05 1.90 6.90 l0.30 4.60 10.80 0 c6.40 0 10.55 0.20 10.25 0.45 -0.25 0.25 -5.05 0.60 -10.70 0.75 -5.65 0.15 -11 0.40 -11.85 0.60 l-1.65 0.30 0 -6.80z"/>
 </g>
 <g fill="#302f2e">
  <path d="M211.20 144.30 c-2.40 -0.60 -5.60 -2.25 -22.55 -11.65 -6.90 -3.80 -8.05 -4.10 -12.70 -3.35 l-1.80 0.30 -0.30 3.40 c-0.30 3.75 -1.10 5.60 -3.05 7.45 l-1.25 1.20 -16.95 -0.25 c-13.15 -0.20 -17.20 -0.40 -18.35 -0.95 -1.50 -0.70 -3.55 -4.10 -3 -4.90 0.15 -0.25 1.10 -0.25 2.10 0 1.05 0.25 9.95 0.45 19.75 0.45 17.15 0 17.90 -0.05 18.40 -0.95 0.25 -0.55 0.50 -4.30 0.50 -8.50 0 -7.10 0.05 -7.55 0.95 -7.55 0.90 0 13.70 6.80 29.55 15.70 l7.25 4.05 8.40 0 c4.60 0 8.35 0.10 8.35 0.30 0 0.15 -0.25 0.50 -0.60 0.85 -0.35 0.35 -0.40 0.60 -0.15 0.60 0.25 0 -0.55 1 -1.75 2.25 l-2.20 2.25 -4.05 -0.05 c-2.20 0 -5.15 -0.30 -6.55 -0.65z"/>
  <path d="M226 130.85 c0 -4.90 0.20 -7.35 0.60 -7.75 0.40 -0.40 2.60 -0.60 6.50 -0.60 3.25 0 6.30 -0.20 6.80 -0.45 3 -1.60 6 -2.70 8 -2.95 2.50 -0.25 4 -1 6.20 -3 2.10 -1.90 3.10 -1.35 3.45 2 0.50 4.60 -0.05 4.40 12.75 4.40 6.10 0 11.25 -0.20 11.40 -0.45 0.15 -0.20 1.35 -0.55 2.65 -0.75 7.15 -1.05 16.80 -3 17.90 -3.65 0.55 -0.30 1.95 -0.80 3.10 -1.10 1.20 -0.35 3.10 -1.50 4.55 -2.80 1.35 -1.25 2.95 -2.25 3.50 -2.25 0.60 0 1.50 0.80 2.30 2 2.75 4.15 8 7.20 14.55 8.50 2.80 0.50 29.40 0.50 32.75 -0.05 1.20 -0.20 1.25 -0.05 1.50 2.55 l0.25 2.75 21.10 0.15 21.05 0.10 2.20 -3 c2.75 -3.75 3.55 -3.80 6.15 -0.25 1.10 1.50 2.25 2.80 2.60 2.95 0.35 0.15 10.05 0.30 21.60 0.35 l21 0.05 -1.10 1.60 c-0.60 0.85 -1.65 2.15 -2.30 2.95 l-1.25 1.35 -18.50 0 c-15.75 -0.05 -18.85 -0.15 -20.55 -0.85 -3.40 -1.35 -6.90 -1.40 -9.10 -0.15 -1.90 1.05 -2.25 1.05 -21.65 0.90 -21.50 -0.15 -20.70 -0.05 -23.95 -3.20 l-1.65 -1.60 -15.35 -0.25 c-16.25 -0.25 -17.55 -0.40 -23.20 -3 -1.50 -0.65 -3.60 -2.05 -4.70 -3.05 -1.80 -1.60 -2.30 -1.80 -4.80 -1.80 -1.55 0 -2.95 0.20 -3.10 0.50 -0.35 0.55 -3.60 2.05 -7 3.15 -1.40 0.45 -6.75 1.65 -11.95 2.60 -10.05 1.85 -14.95 2.10 -25.75 1.30 -5.15 -0.40 -5.20 -0.40 -6.90 -2.20 -1.40 -1.55 -2 -1.85 -3.65 -1.85 -1.15 0 -3.05 0.50 -4.40 1.20 -2.90 1.45 -8.40 3 -14.30 4 -2.45 0.45 -4.80 1.10 -5.30 1.55 -0.45 0.40 -1.05 0.75 -1.35 0.75 -0.70 0 -1.15 1.20 -1.15 2.90 0 1.85 -0.55 3.60 -1.05 3.60 -0.25 0 -0.45 -3.20 -0.45 -7.15z"/>
  <path d="M129.50 128.75 l0 -2.75 -2.25 0 c-1.25 0 -3.55 0.45 -5.10 1 -2.60 0.90 -4.15 1 -15.90 1 -14.55 0 -16.45 -0.30 -22.55 -3.25 -2.90 -1.40 -4.20 -1.75 -6.60 -1.75 -2.05 0 -3.15 0.25 -3.60 0.75 -0.35 0.40 -0.90 0.75 -1.20 0.75 -0.30 0 -2.05 1.05 -3.90 2.30 l-3.35 2.25 -7.65 -0.15 c-8.55 -0.15 -9.85 -0.55 -11.75 -3.35 -0.65 -0.95 -1.05 -1.80 -0.90 -1.95 0.10 -0.15 4 -0.20 8.60 -0.15 l8.40 0.10 3.25 -2.30 c1.80 -1.25 4.05 -2.85 5.10 -3.50 1 -0.65 1.95 -1.45 2.15 -1.75 0.15 -0.25 1.35 -0.50 2.60 -0.50 1.75 0 2.70 0.35 4.10 1.45 5.35 4.20 9.10 5.10 23.15 5.40 13 0.30 13.35 0.25 21.50 -3.45 2.95 -1.30 5.70 -2.40 6.15 -2.40 0.60 0 0.75 0.85 0.75 4.90 0 2.65 0.15 6.05 0.30 7.50 0.30 2.20 0.20 2.60 -0.50 2.60 -0.65 0 -0.80 -0.55 -0.80 -2.75z"/>
  <path d="M441.05 87.40 c-0.85 -1.15 -1.55 -2.20 -1.55 -2.35 0 -0.20 3.05 -4.25 6.80 -9.05 3.70 -4.80 9.05 -11.75 11.85 -15.45 l5.10 -6.75 -0.15 -7.15 c-0.10 -6.15 -0.05 -7.15 0.65 -7.15 0.40 0 0.75 0.30 0.80 0.65 0 0.30 0 3.60 -0.05 7.30 l-0.05 6.65 -1.95 3.85 c-1.80 3.55 -4 6.65 -15.35 21.55 -2.55 3.30 -4.65 6.40 -4.65 6.90 0 0.50 0.35 1.40 0.80 2 0.65 0.95 0.65 1.10 0 1.10 -0.40 0 -1.40 -0.95 -2.25 -2.10z"/>
  <path d="M184.60 71.90 c-0.90 -0.90 -0.70 -1.85 0.30 -1.55 0.75 0.15 1.20 -0.50 2.35 -3.45 2.05 -5.20 3.90 -8.20 7.15 -11.50 l2.80 -2.90 -1.85 0 c-1.55 0 -2.35 0.40 -4.25 2.20 -2.60 2.40 -9.10 11.70 -9.10 12.95 0 0.45 0.40 1.05 0.90 1.30 0.75 0.45 0.70 0.50 -0.35 0.55 -1.75 0 -5.20 -2.90 -4.90 -4.20 0.40 -1.95 15.85 -23.80 16.80 -23.80 0.55 0 1.65 1.15 2.80 3.05 1.05 1.70 2.30 3.45 2.80 3.90 1.55 1.30 1.20 3.15 -0.90 4.55 -3.75 2.50 -6.65 6 -8.90 10.70 -1.20 2.50 -2.45 5.50 -2.80 6.70 -0.60 2.15 -1.65 2.70 -2.85 1.50z"/>
  <path d="M23.90 67.80 c-0.75 -0.90 -1.95 -1.80 -2.75 -1.95 -2.40 -0.50 -4.55 -2.20 -5.65 -4.45 -0.55 -1.15 -0.85 -2.25 -0.65 -2.40 0.25 -0.15 2.10 -0.20 4.15 -0.05 l3.75 0.30 1.60 4.50 c2.20 6.30 2.10 7.25 -0.45 4.05z"/>
  <path d="M5.50 28.75 c0 -2.15 0.20 -3.75 0.50 -3.75 0.30 0 0.50 1.60 0.50 3.75 0 2.15 -0.20 3.75 -0.50 3.75 -0.30 0 -0.50 -1.60 -0.50 -3.75z"/>
 </g>
 <g fill="#000209">
  <path d="M210 139.65 c-0.85 -0.30 -15.95 -8.45 -27.95 -15 -4.20 -2.30 -7.95 -4.10 -8.25 -4 -0.35 0.15 -0.60 2.45 -0.70 6.85 -0.10 4.05 -0.40 7.10 -0.75 7.80 l-0.65 1.20 -19.35 0.05 c-10.85 0.05 -19.45 0.25 -19.65 0.50 -0.50 0.80 -0.95 0.50 -1.95 -1.40 -0.80 -1.50 -1 -2.65 -0.90 -6.35 0.10 -2.50 -0.15 -6.40 -0.55 -8.65 -0.60 -3.85 -0.60 -4.15 0.20 -4.15 0.75 0 0.90 0.95 1.15 8.50 0.20 4.70 0.55 8.95 0.80 9.45 0.75 1.40 2.85 1.55 21.90 1.55 16.90 0 17.65 -0.05 18.15 -0.95 0.30 -0.55 0.50 -4.35 0.50 -8.75 0 -4.85 0.20 -7.80 0.50 -7.80 0.50 0 18.20 9.55 30.50 16.45 l6.75 3.80 7.40 0.15 c5.25 0.10 7.60 0 8.15 -0.40 0.55 -0.50 0.70 -2.15 0.70 -7.70 0 -4.85 0.20 -7.30 0.60 -7.70 0.40 -0.40 2.35 -0.60 5.90 -0.55 4.30 0.05 4.85 0.15 3 0.50 -1.25 0.20 -3.30 0.40 -4.55 0.40 -1.30 0.05 -2.55 0.35 -2.85 0.70 -0.35 0.35 -0.70 3.70 -0.90 7.40 -0.15 3.70 -0.50 7.10 -0.80 7.60 -0.40 0.75 -1.30 0.85 -8.05 0.80 -4.20 0 -7.95 -0.15 -8.35 -0.30z"/>
  <path d="M369 128.60 c-4.30 -0.15 -5.35 -0.85 -5.60 -3.50 l-0.15 -1.80 -15 0.15 c-12.30 0.10 -15.70 0 -18.95 -0.70 -5.70 -1.20 -9.05 -2.95 -12.65 -6.60 -1.65 -1.75 -3.35 -3.15 -3.75 -3.15 -0.35 0 -1.55 0.60 -2.65 1.30 l-2 1.30 2.35 -2.30 c1.30 -1.25 2.65 -2.30 3 -2.30 0.35 0 1.10 0.80 1.65 1.80 1.25 2.40 4.90 5.55 8 7 5.15 2.40 8.30 2.75 24 2.55 8 -0.10 15.05 -0.30 15.75 -0.40 1.20 -0.20 1.25 -0.05 1.50 2.55 l0.25 2.75 21.05 0.15 21.05 0.10 2.20 -2.85 c2 -2.75 2.85 -3.60 3.45 -3.65 0.15 0 1.30 1.35 2.50 3 1.25 1.65 2.50 3.05 2.85 3.20 0.30 0.15 9.60 0.30 20.60 0.35 15.40 0.05 20.20 -0.05 20.80 -0.55 0.60 -0.50 0.75 -2 0.75 -7.65 l0 -7 -3.45 -4.55 c-1.90 -2.50 -5.05 -6.70 -7.10 -9.30 -6.60 -8.60 -9.95 -13.10 -9.95 -13.45 0 -0.70 18.60 -24.30 19.25 -24.45 1.40 -0.30 1.65 -0.70 -7.75 11.40 -6.15 7.90 -10 13.10 -10 13.55 0 0.25 1.05 1.65 2.40 3.10 2.75 3.10 15.50 19.85 17.05 22.35 0.90 1.55 1.05 2.50 1.05 8.25 0 5.65 -0.15 6.70 -1 8.15 l-1.05 1.65 -20.50 -0.25 c-22.80 -0.25 -21.50 -0.10 -24.50 -3.80 -0.90 -1.10 -1.90 -2 -2.25 -2 -0.35 0 -1.05 0.75 -1.65 1.65 -0.55 0.90 -1.60 2.20 -2.30 2.85 l-1.35 1.25 -17.05 0 c-9.40 0 -18.80 -0.05 -20.85 -0.15z"/>
  <path d="M44.55 123.95 c-0.60 -0.80 -2.70 -6.05 -4.60 -11.60 -1.95 -5.55 -4.15 -11.90 -4.95 -14.10 -0.80 -2.20 -2.35 -6.70 -3.50 -10 -1.15 -3.30 -3.20 -9.15 -4.55 -12.95 -1.35 -3.85 -2.45 -7.20 -2.45 -7.50 0 -0.80 -2.30 -6.30 -2.80 -6.80 -0.55 -0.55 -4.80 -0.80 -5.55 -0.35 -0.55 0.35 -1.65 -0.70 -2.60 -2.55 -0.60 -1.15 -2.30 -5.75 -6.10 -16.30 -1.95 -5.50 -2.35 -8.55 -1.45 -12.05 0.30 -1.15 0.40 -0.75 0.45 1.85 0.05 2.90 0.65 5 4.10 14.50 2.25 6.15 4.40 11.55 4.80 12 0.55 0.60 1.70 0.90 4.10 1 l3.30 0.15 11 31.30 c6.05 17.25 11.30 31.70 11.70 32.15 0.55 0.65 1.95 0.80 8.75 0.85 5.20 0 7.65 0.15 6.95 0.45 -0.60 0.25 -4.10 0.50 -7.75 0.55 -3.65 0 -6.90 0.25 -7.20 0.50 -0.35 0.25 -0.95 -0.10 -1.65 -1.10z"/>
  <path d="M257.55 122.05 c-0.60 -0.80 -1.05 -2.25 -1.05 -3.20 0 -2.25 -0.60 -2.60 -2.60 -1.60 l-1.60 0.75 1.25 -1.30 c1.40 -1.50 2.90 -2.40 3.35 -2 0.15 0.20 0.45 1.65 0.65 3.30 0.20 1.65 0.60 3.35 0.95 3.75 0.50 0.60 2.40 0.75 10.20 0.80 5.50 0.05 8.90 0.25 8.05 0.45 -0.80 0.20 -5.25 0.40 -9.85 0.45 l-8.35 0.05 -1 -1.45z"/>
  <path d="M242 121.25 c0.70 -0.85 4.80 -2.25 6.45 -2.20 l1.30 0 -1.25 0.55 c-0.70 0.30 -2.55 0.90 -4.15 1.40 -2.15 0.70 -2.75 0.75 -2.35 0.25z"/>
  <path d="M181.90 69.85 c-2.30 -1.75 -4.20 -3.60 -4.30 -4.15 -0.10 -1 15.70 -24.25 16.75 -24.55 0.30 -0.15 1.65 1.50 3 3.55 2.35 3.70 3.65 4.75 5.80 4.85 1.05 0 1.05 0.05 0.15 0.60 -0.50 0.35 -2.25 1.55 -3.90 2.75 -1.65 1.20 -3.10 2.10 -3.20 2 -0.10 -0.15 0.60 -1 1.55 -1.90 1.60 -1.55 2.40 -4 1.30 -4 -0.25 0 -1.30 -1.35 -2.30 -3 -1.05 -1.70 -2.10 -2.95 -2.45 -2.85 -0.90 0.30 -15.30 21.50 -15.15 22.35 0.15 0.85 6.20 5.50 7.15 5.50 0.80 0 0.95 1.30 0.25 1.75 -0.30 0.15 -2.35 -1.15 -4.65 -2.90z"/>
  <path d="M290.30 61.30 c-0.15 -4.25 -0.45 -8.45 -0.65 -9.30 -0.25 -1.40 -0.15 -1.60 0.65 -1.40 1.30 0.25 2.25 3.85 2.30 8.90 0.05 4.15 -0.85 9.50 -1.55 9.50 -0.25 0 -0.55 -3.45 -0.75 -7.70z"/>
  <path d="M94.50 34.05 c0 -7.80 0.15 -9.55 0.70 -9.55 1 0 1.25 2.40 0.90 10.40 l-0.25 7.10 11.45 0.10 11.45 0.10 -10.25 0.35 c-5.65 0.15 -11.10 0.50 -12.10 0.70 l-1.90 0.40 0 -9.60z"/>
  <path d="M5.85 26.65 c-0.55 -0.50 -0.40 -5.65 0.15 -5.65 0.30 0 0.50 1.35 0.50 3 0 3.05 -0.05 3.25 -0.65 2.65z"/>
 </g>
</svg>